<svg width="40" height="40" viewBox="0 0 40 40" fill="currentColor" xmlns="http://www.w3.org/2000/svg">
<path fill-rule="evenodd" clip-rule="evenodd" d="M35.7982 3.33337H5.97159C4.54492 3.33337 3.33325 4.46171 3.33325 5.85171V35.8134C3.33325 37.205 4.12825 38.3334 5.55492 38.3334H35.3816C36.8099 38.3334 38.3333 37.205 38.3333 35.8134V5.85171C38.3333 4.46171 37.2266 3.33337 35.7982 3.33337ZM16.6666 16.6667H21.3783V19.0684H21.4299C22.1483 17.7734 24.2699 16.4584 26.8933 16.4584C31.9283 16.4584 33.3333 19.1317 33.3333 24.0834V33.3334H28.3333V24.995C28.3333 22.7784 27.4482 20.8334 25.3782 20.8334C22.8649 20.8334 21.6666 22.535 21.6666 25.3284V33.3334H16.6666V16.6667ZM8.33325 33.3334H13.3333V16.6667H8.33325V33.3334ZM13.9583 10.8334C13.9583 12.56 12.5599 13.9584 10.8333 13.9584C9.10659 13.9584 7.70825 12.56 7.70825 10.8334C7.70825 9.10671 9.10659 7.70837 10.8333 7.70837C12.5599 7.70837 13.9583 9.10671 13.9583 10.8334Z" />
</svg>
